<svg height="500.000" width="500.000" xmlns="http://www.w3.org/2000/svg"><polyline points="250.000,488.000 284.424,481.918 315.388,464.190 339.736,436.332 354.890,400.718 359.083,360.378 351.508,318.732 332.395,279.291 302.986,245.351 265.436,219.706 222.616,204.401 177.873,200.558 134.730,208.278 96.585,226.628 66.414,253.732 46.509,286.926 38.282,322.998 42.141,358.468 57.454,389.893 82.609,414.168 115.151,428.798 152.000,432.121 189.720,423.447 224.820,403.128 254.060,372.521 274.733,333.876 284.905,290.135 283.581,244.681 270.795,201.043 247.604,162.586 216.000,132.221 178.733,112.147 139.072,103.669 100.518,107.077 66.499,121.624 40.071,145.594 23.649,176.454 18.796,211.073 26.087,246.000 45.058,277.764 74.246,303.182 111.316,319.635 153.264,325.301 196.681,319.311 238.047,301.830 274.042,274.042 301.830,238.047 319.311,196.681 325.301,153.264 319.635,111.316 303.182,74.246 277.764,45.058 246.000,26.087 211.073,18.796 176.454,23.649 145.594,40.071 121.623,66.499 107.077,100.518 103.669,139.072 112.147,178.733 132.221,216.000 162.587,247.604 201.044,270.795 244.681,283.581 290.135,284.905 333.876,274.733 372.521,254.060 403.128,224.820 423.447,189.719 432.121,152.000 428.798,115.150 414.168,82.609 389.893,57.454 358.468,42.141 322.997,38.282 286.926,46.509 253.732,66.414 226.628,96.585 208.278,134.730 200.558,177.873 204.401,222.616 219.706,265.436 245.351,302.986 279.291,332.395 318.732,351.508 360.378,359.083 400.718,354.890 436.332,339.736 464.190,315.388 481.918,284.424 488.000,250.000 481.918,215.576 464.190,184.612 436.332,160.265 400.718,145.110 360.377,140.917 318.731,148.492 279.291,167.605 245.351,197.014 219.706,234.565 204.401,277.384 200.558,322.128 208.278,365.270 226.629,403.415 253.732,433.586 286.926,453.491 322.998,461.718 358.468,457.859 389.893,442.546 414.168,417.391 428.798,384.849 432.121,348.000 423.447,310.280 403.128,275.180 372.521,245.940 333.875,225.266 290.134,215.095 244.682,216.419 201.043,229.205 162.586,252.396 132.220,284.000 112.147,321.267 103.669,360.928 107.077,399.482 121.624,433.501 145.594,459.929 176.454,476.351 211.073,481.204 246.000,473.913 277.764,454.942 303.182,425.754 319.636,388.684 325.301,346.736 319.311,303.319 301.829,261.952 274.042,225.958 238.047,198.170 196.681,180.689 153.265,174.699 111.316,180.364 74.246,196.818 45.058,222.236 26.087,254.000 18.795,288.927 23.649,323.546 40.071,354.406 66.499,378.376 100.518,392.923 139.072,396.331 178.733,387.853 216.000,367.780 247.604,337.413 270.795,298.957 283.581,255.319 284.905,209.866 274.733,166.124 254.060,127.478 224.820,96.872 189.719,76.552 152.000,67.879 115.150,71.202 82.609,85.832 57.454,110.107 42.141,141.532 38.282,177.002 46.509,213.075 66.414,246.268 96.585,273.372 134.730,291.722 177.873,299.442 222.616,295.599 265.436,280.294 302.987,254.648 332.395,220.709 351.508,181.268 359.083,139.622 354.890,99.282 339.735,63.668 315.388,35.810 284.425,18.082 250.000,12.000 215.576,18.082 184.612,35.810 160.264,63.668 145.110,99.283 140.917,139.623 148.492,181.268 167.606,220.709 197.014,254.649 234.564,280.294 277.384,295.599 322.127,299.442 365.271,291.722 403.415,273.371 433.586,246.268 453.491,213.074 461.718,177.002 457.860,141.533 442.546,110.107 417.391,85.832 384.849,71.202 348.000,67.879 310.280,76.553 275.180,96.872 245.940,127.479 225.266,166.125 215.095,209.866 216.419,255.319 229.205,298.957 252.396,337.414 284.000,367.779 321.267,387.853 360.928,396.331 399.482,392.923 433.501,378.376 459.929,354.406 476.352,323.546 481.204,288.927 473.913,254.001 454.941,222.235 425.754,196.818 388.685,180.365 346.735,174.699 303.318,180.690 261.952,198.171 225.958,225.959 198.170,261.953 180.689,303.319 174.699,346.736 180.365,388.684 196.818,425.754 222.236,454.942 254.001,473.914 288.928,481.204 323.545,476.352 354.406,459.929 378.377,433.501 392.923,399.482 396.331,360.927 387.852,321.266 367.779,284.000 337.413,252.396 298.957,229.205 255.318,216.418 209.865,215.095 166.124,225.267 127.478,245.940 96.872,275.180 76.552,310.281 67.879,348.001 71.202,384.850 85.832,417.391 110.107,442.546 141.532,457.859 177.003,461.718 213.075,453.491 246.269,433.585 273.372,403.415 291.722,365.270 299.442,322.127 295.599,277.384 280.294,234.563 254.648,197.013 220.708,167.605 181.268,148.492 139.622,140.917 99.282,145.110 63.668,160.265 35.809,184.612 18.082,215.576 12.000,250.000 18.082,284.424 35.810,315.389 63.668,339.736 99.283,354.890 139.622,359.083 181.268,351.508 220.710,332.394 254.649,302.986 280.294,265.436 295.600,222.615 299.442,177.873 291.722,134.729 273.371,96.585 246.268,66.414 213.073,46.509 177.002,38.282 141.533,42.140 110.107,57.454 85.833,82.609 71.202,115.151 67.879,152.001 76.553,189.720 96.872,224.820 127.479,254.060 166.124,274.733 209.866,284.906 255.319,283.581 298.957,270.795 337.414,247.604 367.779,216.001 387.853,178.733 396.331,139.071 392.923,100.518 378.376,66.499 354.406,40.071 323.546,23.648 288.926,18.795 254.001,26.087 222.235,45.059 196.818,74.246 180.365,111.315 174.699,153.265 180.689,196.682 198.171,238.048 225.959,274.042 261.954,301.830 303.319,319.311 346.736,325.301 388.685,319.635 425.754,303.182 454.942,277.763 473.913,246.000 481.205,211.073 476.351,176.454 459.929,145.594 433.501,121.623 399.482,107.077 360.928,103.669 321.267,112.147 283.999,132.221 252.396,162.587 229.205,201.044 216.418,244.683 215.095,290.134 225.267,333.876 245.940,372.521 275.180,403.128 310.282,423.448 348.001,432.121 384.849,428.798 417.392,414.167 442.546,389.893 457.860,358.467 461.718,322.996 453.491,286.925 433.586,253.731 403.415,226.629 365.270,208.278 322.126,200.558 277.384,204.401 234.564,219.706 197.013,245.352 167.606,279.291 148.491,318.733 140.917,360.379 145.110,400.718 160.265,436.332 184.611,464.190 215.576,481.918 250.001,488.000" style="fill:none;stroke:black;stroke-width:1" /></svg>
